<mxfile host="Electron" modified="2024-03-13T11:13:23.872Z" agent="Mozilla/5.0 (X11; Linux x86_64) AppleWebKit/537.36 (KHTML, like Gecko) draw.io/22.0.3 Chrome/118.0.5993.159 Electron/27.3.2 Safari/537.36" etag="CEHg_3-5h_vmSjq94ffj" version="22.0.3" type="device">
  <diagram name="Page-1" id="efJzUPXuS_830_6F4bIQ">
    <mxGraphModel dx="1434" dy="849" grid="1" gridSize="10" guides="1" tooltips="1" connect="1" arrows="1" fold="1" page="1" pageScale="1" pageWidth="850" pageHeight="1100" math="0" shadow="0">
      <root>
        <mxCell id="0" />
        <mxCell id="1" parent="0" />
        <mxCell id="fPG1StlZNPGjadmVSso1-14" value="" style="rounded=0;whiteSpace=wrap;html=1;gradientColor=none;strokeColor=none;fillColor=#000000;" parent="1" vertex="1">
          <mxGeometry x="10" y="78" width="817.77" height="460" as="geometry" />
        </mxCell>
        <mxCell id="fPG1StlZNPGjadmVSso1-8" style="rounded=0;orthogonalLoop=1;jettySize=auto;html=1;endArrow=none;endFill=0;strokeWidth=4;exitX=1;exitY=0;exitDx=0;exitDy=0;strokeColor=#FFFFFF;" parent="1" source="fPG1StlZNPGjadmVSso1-1" target="fPG1StlZNPGjadmVSso1-3" edge="1">
          <mxGeometry relative="1" as="geometry">
            <mxPoint x="196.69069800777584" y="445.9808984026331" as="sourcePoint" />
          </mxGeometry>
        </mxCell>
        <mxCell id="fPG1StlZNPGjadmVSso1-9" style="rounded=0;orthogonalLoop=1;jettySize=auto;html=1;endArrow=none;endFill=0;strokeWidth=4;strokeColor=#FFFFFF;" parent="1" source="fPG1StlZNPGjadmVSso1-1" target="fPG1StlZNPGjadmVSso1-4" edge="1">
          <mxGeometry relative="1" as="geometry" />
        </mxCell>
        <mxCell id="fPG1StlZNPGjadmVSso1-1" value="" style="ellipse;whiteSpace=wrap;html=1;aspect=fixed;strokeWidth=4;fillColor=#ffe6cc;strokeColor=#d79b00;" parent="1" vertex="1">
          <mxGeometry x="160" y="444" width="40" height="40" as="geometry" />
        </mxCell>
        <mxCell id="fPG1StlZNPGjadmVSso1-2" value="" style="endArrow=none;html=1;rounded=0;entryX=0;entryY=0.5;entryDx=0;entryDy=0;strokeWidth=4;strokeColor=#FFFFFF;" parent="1" target="fPG1StlZNPGjadmVSso1-1" edge="1">
          <mxGeometry width="50" height="50" relative="1" as="geometry">
            <mxPoint x="20" y="464" as="sourcePoint" />
            <mxPoint x="450" y="454" as="targetPoint" />
          </mxGeometry>
        </mxCell>
        <mxCell id="fPG1StlZNPGjadmVSso1-11" style="edgeStyle=orthogonalEdgeStyle;rounded=0;orthogonalLoop=1;jettySize=auto;html=1;endArrow=none;endFill=0;strokeWidth=4;strokeColor=#FFFFFF;" parent="1" source="fPG1StlZNPGjadmVSso1-3" edge="1">
          <mxGeometry relative="1" as="geometry">
            <mxPoint x="820" y="407" as="targetPoint" />
          </mxGeometry>
        </mxCell>
        <mxCell id="fPG1StlZNPGjadmVSso1-3" value="" style="ellipse;whiteSpace=wrap;html=1;aspect=fixed;strokeWidth=4;fillColor=#dae8fc;strokeColor=#6c8ebf;" parent="1" vertex="1">
          <mxGeometry x="368" y="387" width="40" height="40" as="geometry" />
        </mxCell>
        <mxCell id="fPG1StlZNPGjadmVSso1-7" style="rounded=0;orthogonalLoop=1;jettySize=auto;html=1;endArrow=none;endFill=0;strokeWidth=4;strokeColor=#FFFFFF;" parent="1" source="fPG1StlZNPGjadmVSso1-4" target="fPG1StlZNPGjadmVSso1-5" edge="1">
          <mxGeometry relative="1" as="geometry" />
        </mxCell>
        <mxCell id="fPG1StlZNPGjadmVSso1-10" style="rounded=0;orthogonalLoop=1;jettySize=auto;html=1;endArrow=none;endFill=0;strokeWidth=4;strokeColor=#FFFFFF;" parent="1" source="fPG1StlZNPGjadmVSso1-4" target="fPG1StlZNPGjadmVSso1-6" edge="1">
          <mxGeometry relative="1" as="geometry" />
        </mxCell>
        <mxCell id="fPG1StlZNPGjadmVSso1-4" value="" style="ellipse;whiteSpace=wrap;html=1;aspect=fixed;strokeWidth=4;fillColor=#d5e8d4;strokeColor=#82b366;" parent="1" vertex="1">
          <mxGeometry x="320" y="480" width="40" height="40" as="geometry" />
        </mxCell>
        <mxCell id="fPG1StlZNPGjadmVSso1-12" style="edgeStyle=orthogonalEdgeStyle;rounded=0;orthogonalLoop=1;jettySize=auto;html=1;endArrow=none;endFill=0;strokeWidth=4;strokeColor=#FFFFFF;" parent="1" source="fPG1StlZNPGjadmVSso1-5" edge="1">
          <mxGeometry relative="1" as="geometry">
            <mxPoint x="820" y="451" as="targetPoint" />
          </mxGeometry>
        </mxCell>
        <mxCell id="fPG1StlZNPGjadmVSso1-5" value="" style="ellipse;whiteSpace=wrap;html=1;aspect=fixed;strokeWidth=4;fillColor=#f8cecc;strokeColor=#b85450;" parent="1" vertex="1">
          <mxGeometry x="440" y="431" width="40" height="40" as="geometry" />
        </mxCell>
        <mxCell id="fPG1StlZNPGjadmVSso1-13" style="edgeStyle=orthogonalEdgeStyle;rounded=0;orthogonalLoop=1;jettySize=auto;html=1;endArrow=none;endFill=0;strokeWidth=4;strokeColor=#FFFFFF;" parent="1" source="fPG1StlZNPGjadmVSso1-6" edge="1">
          <mxGeometry relative="1" as="geometry">
            <mxPoint x="820" y="500" as="targetPoint" />
          </mxGeometry>
        </mxCell>
        <mxCell id="fPG1StlZNPGjadmVSso1-6" value="" style="ellipse;whiteSpace=wrap;html=1;aspect=fixed;strokeWidth=4;fillColor=#e1d5e7;strokeColor=#9673a6;" parent="1" vertex="1">
          <mxGeometry x="640" y="480" width="40" height="40" as="geometry" />
        </mxCell>
      </root>
    </mxGraphModel>
  </diagram>
</mxfile>
